<svg xmlns="http://www.w3.org/2000/svg" xmlns:xlink="http://www.w3.org/1999/xlink" viewBox="0 0 438.22 308.19"><defs><style>.cls-1{fill:#8972d9;}.cls-2{fill:#efeeff;}.cls-3{fill:#d9d3f7;}.cls-4{fill:#c5c2ef;}.cls-5{fill:#908ae1;}.cls-6{fill:url(#Áåçûìÿííûé_ãðàäèåíò_93);}.cls-7{fill:url(#Áåçûìÿííûé_ãðàäèåíò_93-2);}.cls-8{fill:url(#Áåçûìÿííûé_ãðàäèåíò_93-3);}.cls-9{fill:url(#Áåçûìÿííûé_ãðàäèåíò_93-4);}.cls-10{fill:url(#Áåçûìÿííûé_ãðàäèåíò_20);}.cls-11{fill:#fff;}.cls-12{fill:url(#Áåçûìÿííûé_ãðàäèåíò_93-5);}.cls-13{fill:#ffd261;}.cls-14{fill:#1f0a5a;}.cls-15{fill:url(#Áåçûìÿííûé_ãðàäèåíò_9);}.cls-16{fill:url(#Áåçûìÿííûé_ãðàäèåíò_9-2);}.cls-17{fill:url(#Áåçûìÿííûé_ãðàäèåíò_10);}.cls-18{fill:url(#Áåçûìÿííûé_ãðàäèåíò_10-2);}.cls-19{fill:url(#Áåçûìÿííûé_ãðàäèåíò_9-3);}.cls-20{fill:url(#Áåçûìÿííûé_ãðàäèåíò_9-4);}.cls-21{fill:url(#Áåçûìÿííûé_ãðàäèåíò_10-3);}.cls-22{fill:url(#Áåçûìÿííûé_ãðàäèåíò_5);}.cls-23{fill:url(#Áåçûìÿííûé_ãðàäèåíò_5-2);}.cls-24{fill:url(#Áåçûìÿííûé_ãðàäèåíò_10-4);}.cls-25{fill:url(#Áåçûìÿííûé_ãðàäèåíò_10-5);}.cls-26{fill:url(#Áåçûìÿííûé_ãðàäèåíò_10-6);}.cls-27{fill:#fd355a;}.cls-28{fill:#ff886c;}.cls-29{fill:url(#Áåçûìÿííûé_ãðàäèåíò_10-7);}.cls-30{fill:#ff8d6a;}.cls-31{fill:url(#Áåçûìÿííûé_ãðàäèåíò_10-8);}.cls-32{fill:url(#Áåçûìÿííûé_ãðàäèåíò_5-3);}.cls-33{fill:#f7bc46;}.cls-34{fill:#5c4ec5;}</style><linearGradient id="Áåçûìÿííûé_ãðàäèåíò_93" x1="405.22" y1="54.85" x2="420.18" y2="73.68" gradientTransform="matrix(-0.82, -0.57, -0.57, 0.82, 673.15, 218.01)" gradientUnits="userSpaceOnUse"><stop offset="0" stop-color="#8d89dd"/><stop offset="1" stop-color="#5129b3"/></linearGradient><linearGradient id="Áåçûìÿííûé_ãðàäèåíò_93-2" x1="413.44" y1="51.63" x2="436.14" y2="71.82" xlink:href="#Áåçûìÿííûé_ãðàäèåíò_93"/><linearGradient id="Áåçûìÿííûé_ãðàäèåíò_93-3" x1="403.05" y1="65.75" x2="413.45" y2="61.43" xlink:href="#Áåçûìÿííûé_ãðàäèåíò_93"/><linearGradient id="Áåçûìÿííûé_ãðàäèåíò_93-4" x1="417.99" y1="41.99" x2="404.6" y2="53.06" xlink:href="#Áåçûìÿííûé_ãðàäèåíò_93"/><linearGradient id="Áåçûìÿííûé_ãðàäèåíò_20" x1="-2984.66" y1="0.82" x2="-2986.12" y2="47.02" gradientTransform="matrix(-1, 0, 0, 1, -2869.04, 0)" gradientUnits="userSpaceOnUse"><stop offset="0" stop-color="#f8f7ff"/><stop offset="1" stop-color="#dbd8ff"/></linearGradient><linearGradient id="Áåçûìÿííûé_ãðàäèåíò_93-5" x1="264.79" y1="244.02" x2="619.29" y2="552.62" gradientTransform="matrix(1, 0, 0, 1, 0, 0)" xlink:href="#Áåçûìÿííûé_ãðàäèåíò_93"/><linearGradient id="Áåçûìÿííûé_ãðàäèåíò_9" x1="323.03" y1="297.61" x2="327.14" y2="301.39" gradientUnits="userSpaceOnUse"><stop offset="0" stop-color="#6060a1"/><stop offset="1" stop-color="#200c54"/></linearGradient><linearGradient id="Áåçûìÿííûé_ãðàäèåíò_9-2" x1="344.68" y1="303.92" x2="353.05" y2="303.92" xlink:href="#Áåçûìÿííûé_ãðàäèåíò_9"/><linearGradient id="Áåçûìÿííûé_ãðàäèåíò_10" x1="322.84" y1="297.38" x2="334.39" y2="297.38" gradientUnits="userSpaceOnUse"><stop offset="0" stop-color="#edb39d"/><stop offset="1" stop-color="#ed825e"/></linearGradient><linearGradient id="Áåçûìÿííûé_ãðàäèåíò_10-2" x1="322" y1="35.36" x2="326.41" y2="35.36" gradientTransform="translate(25.58 277.83) rotate(-2.35)" xlink:href="#Áåçûìÿííûé_ãðàäèåíò_10"/><linearGradient id="Áåçûìÿííûé_ãðàäèåíò_9-3" x1="324.18" y1="264.1" x2="341.69" y2="268.76" xlink:href="#Áåçûìÿííûé_ãðàäèåíò_9"/><linearGradient id="Áåçûìÿííûé_ãðàäèåíò_9-4" x1="373.13" y1="262.24" x2="345.09" y2="268.88" xlink:href="#Áåçûìÿííûé_ãðàäèåíò_9"/><linearGradient id="Áåçûìÿííûé_ãðàäèåíò_10-3" x1="329.5" y1="227.77" x2="336.61" y2="235.33" xlink:href="#Áåçûìÿííûé_ãðàäèåíò_10"/><linearGradient id="Áåçûìÿííûé_ãðàäèåíò_5" x1="331.86" y1="217.85" x2="335.69" y2="220.5" gradientUnits="userSpaceOnUse"><stop offset="0" stop-color="#fff4a8"/><stop offset="1" stop-color="#ffce64"/></linearGradient><linearGradient id="Áåçûìÿííûé_ãðàäèåíò_5-2" x1="330.36" y1="199.93" x2="347.07" y2="229.41" xlink:href="#Áåçûìÿííûé_ãðàäèåíò_5"/><linearGradient id="Áåçûìÿííûé_ãðàäèåíò_10-4" x1="347.44" y1="210.36" x2="342.46" y2="208.52" xlink:href="#Áåçûìÿííûé_ãðàäèåíò_10"/><linearGradient id="Áåçûìÿííûé_ãðàäèåíò_10-5" x1="339.04" y1="206.24" x2="341.76" y2="197.32" xlink:href="#Áåçûìÿííûé_ãðàäèåíò_10"/><linearGradient id="Áåçûìÿííûé_ãðàäèåíò_10-6" x1="346.62" y1="225.97" x2="346.15" y2="235.39" xlink:href="#Áåçûìÿííûé_ãðàäèåíò_10"/><linearGradient id="Áåçûìÿííûé_ãðàäèåíò_10-7" x1="334.28" y1="225.23" x2="341.11" y2="225.99" xlink:href="#Áåçûìÿííûé_ãðàäèåíò_10"/><linearGradient id="Áåçûìÿííûé_ãðàäèåíò_10-8" x1="324.96" y1="229.86" x2="323.22" y2="233.31" xlink:href="#Áåçûìÿííûé_ãðàäèåíò_10"/><linearGradient id="Áåçûìÿííûé_ãðàäèåíò_5-3" x1="337.1" y1="219.21" x2="359.46" y2="218.22" xlink:href="#Áåçûìÿííûé_ãðàäèåíò_5"/></defs><title>Illustration</title><g id="Layer_2" data-name="Layer 2"><g id="_1" data-name="1"><g id="Illustration"><path class="cls-1" d="M438.22,297a1,1,0,0,1-1,1H10a1,1,0,1,1,0-2H437.2A1,1,0,0,1,438.22,297Z"/><path class="cls-1" d="M192.68,308.19H78.44a1,1,0,0,1-1-1h0a1,1,0,0,1,1-1H192.68a1,1,0,0,1,1,1h0A1,1,0,0,1,192.68,308.19Z"/><path class="cls-1" d="M368.07,308.19H281.94a1,1,0,0,1-1-1h0a1,1,0,0,1,1-1h86.13a1,1,0,0,1,1,1h0A1,1,0,0,1,368.07,308.19Z"/><path class="cls-1" d="M318.26,303H128.91a1.12,1.12,0,0,1-1.22-1h0a1.12,1.12,0,0,1,1.22-1H318.26a1.11,1.11,0,0,1,1.21,1h0A1.11,1.11,0,0,1,318.26,303Z"/><path class="cls-1" d="M140.72,211.11s-58.53-13.55-81.69-68L80,144.12l-23.62-8.06a118,118,0,0,1-5.42-23.18L64,114.67l-13.66-7c-1.56-17.07,0-36.81,5.87-59.61a174.73,174.73,0,0,1,46,28l.32,10.26,5-5.53C120.8,93.3,133,109.62,138.55,130,153,183,140.72,211.11,140.72,211.11Z"/><path class="cls-2" d="M140.65,211.63a.51.51,0,0,1-.41-.3C106,134.6,56.25,49.13,55.75,48.27a.52.52,0,0,1,.9-.52c.5.85,50.28,86.38,84.54,163.15a.52.52,0,0,1-.26.69A.55.55,0,0,1,140.65,211.63Z"/><path class="cls-2" d="M72.76,77.09,51.42,71.37a.52.52,0,0,1,.27-1l20.17,5.41L74,56.84a.53.53,0,0,1,.58-.46A.52.52,0,0,1,75,57Z"/><path class="cls-2" d="M49.73,98.62a.52.52,0,1,1,.14-1l36.79,4.92,6.45-33.37a.53.53,0,0,1,.61-.41.52.52,0,0,1,.42.61l-6.65,34.33-37.76-5Z"/><path class="cls-2" d="M102.84,133.59,52.67,123.9a.52.52,0,1,1,.19-1l49.22,9.51,11.74-44.83a.53.53,0,0,1,.64-.37.52.52,0,0,1,.37.63Z"/><path class="cls-2" d="M63.64,153.23a.52.52,0,0,1,.14-1l52.1,6.76,18.26-40.57a.52.52,0,0,1,1,.42l-18.58,41.28-52.87-6.85Z"/><path class="cls-2" d="M130.12,187.65,84.4,180.08a.52.52,0,0,1,.17-1l44.89,7.44L143,152.59a.52.52,0,1,1,1,.39Z"/><path class="cls-1" d="M336,239.44s39.76-16.56,49.93-56.51l-14.65,3.35L387,177.83a78.89,78.89,0,0,0,1.2-16.44l-9,2.86,8.84-6.51c-.83-11.79-4.15-25-10.9-39.77a128,128,0,0,0-29.25,24.8l.94,7-4.14-3.13c-8,10.21-14.76,22.83-16.37,37.38C324.14,221.9,336,239.44,336,239.44Z"/><path class="cls-2" d="M336.15,239.94a.61.61,0,0,1-.3,0,.52.52,0,0,1-.36-.64C351,182.81,376.4,118.42,376.66,117.77a.52.52,0,0,1,.67-.29.52.52,0,0,1,.29.68c-.25.64-25.66,65-41.13,121.42A.55.55,0,0,1,336.15,239.94Z"/><path class="cls-2" d="M368.66,140l-3.94-13.58a.52.52,0,0,1,.35-.64.53.53,0,0,1,.65.35l3.61,12.42,13.46-6.14a.53.53,0,0,1,.69.26.52.52,0,0,1-.25.69Z"/><path class="cls-2" d="M387.49,151.7h0l-26.2,8.22-8.64-22.64a.52.52,0,0,1,1-.37l8.29,21.73,25.27-7.93a.52.52,0,0,1,.65.34A.51.51,0,0,1,387.49,151.7Z"/><path class="cls-2" d="M353.86,182.19l-13.71-29.74a.52.52,0,1,1,.94-.43l13.31,28.86,33.53-12.6a.54.54,0,0,1,.67.31.52.52,0,0,1-.31.67Z"/><path class="cls-2" d="M383.87,190.57h0L347.23,201.9l-17.85-25.82a.52.52,0,0,1,.14-.72.51.51,0,0,1,.72.13l17.42,25.19,35.9-11.1a.52.52,0,0,1,.65.34A.53.53,0,0,1,383.87,190.57Z"/><path class="cls-2" d="M340.75,222.35,327,200.41a.52.52,0,0,1,.16-.71.53.53,0,0,1,.72.16l13.32,21.24,30.73-10.66a.53.53,0,0,1,.67.32.52.52,0,0,1-.33.66Z"/><path class="cls-3" d="M122.14,158.23s37.55-21.11,43-62l-14.15,5L165.6,91.06a78.68,78.68,0,0,0-.74-16.46l-8.62,3.9,8-7.5c-2.21-11.62-7.06-24.37-15.49-38.23a128.43,128.43,0,0,0-26.14,28.06l1.75,6.86-4.47-2.63c-6.75,11.08-12,24.41-11.88,39C108.31,142.2,122.14,158.23,122.14,158.23Z"/><path class="cls-2" d="M122.36,158.7a.48.48,0,0,1-.29,0,.51.51,0,0,1-.44-.59c8.75-57.92,26.46-124.85,26.64-125.51a.52.52,0,0,1,1,.26c-.18.67-17.87,67.54-26.61,125.41A.53.53,0,0,1,122.36,158.7Z"/><path class="cls-2" d="M142.94,55.67l-5.51-13a.52.52,0,1,1,.95-.4l5.05,11.91,12.65-7.68a.52.52,0,0,1,.71.18.51.51,0,0,1-.17.71Z"/><path class="cls-2" d="M163,65.06h0L137.94,76.3,126.71,54.82a.52.52,0,0,1,.93-.48L138.41,75l24.17-10.84a.52.52,0,0,1,.69.26A.53.53,0,0,1,163,65.06Z"/><path class="cls-2" d="M133.18,99.28l-17.1-27.93a.51.51,0,0,1,.17-.71.52.52,0,0,1,.71.17l16.6,27.1,31.82-16.43a.52.52,0,0,1,.7.22.53.53,0,0,1-.22.7Z"/><path class="cls-2" d="M164,104.08h0l-35.05,15.54L108.15,96.08a.51.51,0,0,1,0-.73.52.52,0,0,1,.73,0l20.25,23,34.35-15.24a.53.53,0,0,1,.69.27A.51.51,0,0,1,164,104.08Z"/><path class="cls-2" d="M124.87,140.7l-16.24-20.17a.52.52,0,0,1,.81-.65l15.72,19.52,29.27-14.18a.51.51,0,0,1,.69.24.52.52,0,0,1-.24.7Z"/><path class="cls-4" d="M319.05,283.27s37.83,12.21,68.91-9.74l-12.28-6.43,16.12,3.51a73.09,73.09,0,0,0,10.69-10.82l-8.05-3.4,10.11.73c6.49-8.78,12.09-20.05,16.19-34.45a118.17,118.17,0,0,0-35.4-.13L381.8,228l-1-4.68c-11.73,2.37-24,7.18-33.89,16.43C321.24,263.85,319.05,283.27,319.05,283.27Z"/><path class="cls-2" d="M318.86,283.71a.5.5,0,0,1-.21-.17.48.48,0,0,1,.13-.67c44.73-30.38,101.17-60.33,101.74-60.63a.49.49,0,0,1,.65.2.49.49,0,0,1-.2.65c-.57.3-57,30.23-101.65,60.58A.5.5,0,0,1,318.86,283.71Z"/><path class="cls-2" d="M401.57,233.07l5.37-11.89a.47.47,0,0,1,.63-.24.48.48,0,0,1,.24.63l-4.91,10.88L416,236.22a.47.47,0,0,1,.33.59.48.48,0,0,1-.59.33Z"/><path class="cls-2" d="M407.79,252.55h0l-23.33-9.93L392,221.54a.48.48,0,0,1,.61-.29.48.48,0,0,1,.29.62l-7.21,20.22,22.49,9.58a.48.48,0,1,1-.37.88Z"/><path class="cls-2" d="M365.91,253.8l8.2-29.1a.48.48,0,1,1,.92.26l-8,28.24,31.08,11.25a.49.49,0,0,1,.29.62.47.47,0,0,1-.61.28Z"/><path class="cls-2" d="M382,277.66h0l-32.5-14,2.95-28.82a.48.48,0,1,1,.95.1l-2.87,28.12,31.85,13.73a.47.47,0,0,1,.25.63A.47.47,0,0,1,382,277.66Z"/><path class="cls-2" d="M332.63,274.13l3.49-23.65a.49.49,0,0,1,.54-.41.48.48,0,0,1,.41.55l-3.38,22.89,28,10.94a.47.47,0,0,1,.27.62.48.48,0,0,1-.62.28Z"/><path class="cls-3" d="M116.34,235s-46.07,11-81.15-17.18l15.17-6.46-19.48,2.74a85.85,85.85,0,0,1-11.79-13.52L29,197.32H16.87c-7-10.79-12.66-24.41-16.3-41.55a143.87,143.87,0,0,1,42.13,2.84l3.74,6.7,1.63-5.37c13.75,3.76,28,10.41,38.91,22C115.41,212.2,116.34,235,116.34,235Z"/><path class="cls-2" d="M116.53,235.56a.51.51,0,0,0,.26-.18.56.56,0,0,0-.09-.79C66.1,195.39,1.52,155.69.88,155.29a.59.59,0,0,0-.79.18.55.55,0,0,0,.18.77c.64.4,65.17,40.07,115.72,79.23A.56.56,0,0,0,116.53,235.56Z"/><path class="cls-2" d="M22.49,169.52,17.13,155.2a.59.59,0,0,0-.74-.34.56.56,0,0,0-.34.72L21,168.69,5,172a.57.57,0,0,0-.45.66.58.58,0,0,0,.68.44Z"/><path class="cls-2" d="M13.41,191.72h0L42,182.1l-7.13-25.21a.57.57,0,0,0-.7-.39.55.55,0,0,0-.4.69l6.83,24.19L13,190.66a.56.56,0,0,0-.36.71A.58.58,0,0,0,13.41,191.72Z"/><path class="cls-2" d="M63.13,196.7l-7.25-34.62a.57.57,0,0,0-1.12.23l7,33.6-37.94,10.5a.56.56,0,0,0-.4.69.58.58,0,0,0,.71.39Z"/><path class="cls-2" d="M42,223.18h0l39.87-13.59-1-33.86a.56.56,0,0,0-.59-.54.56.56,0,0,0-.56.57l1,33L41.62,222.12a.55.55,0,0,0-.35.71A.57.57,0,0,0,42,223.18Z"/><path class="cls-2" d="M101,223.23l-2.11-27.88a.58.58,0,0,0-1.15.08l2.05,27L65.55,232.81a.57.57,0,0,0-.38.71.59.59,0,0,0,.72.37Z"/><path class="cls-5" d="M191.07,72.77c.2.09.38,0,.38-.15.06-1,.13-2.07.22-3.06a.54.54,0,0,0-.34-.47c-.2-.09-.37,0-.39.14-.09,1-.16,2-.22,3.08a.28.28,0,0,0,0,.09A.59.59,0,0,0,191.07,72.77Zm.53-6.09c.2.1.38,0,.4-.12.13-1,.28-2,.46-3a.52.52,0,0,0-.31-.47c-.2-.11-.39-.06-.42.1-.17,1-.32,2-.46,3a.45.45,0,0,0,0,.11A.56.56,0,0,0,191.6,66.68Zm1-5.85c.2.11.39.07.43-.09.22-1,.47-1.89.73-2.79a.48.48,0,0,0-.27-.49c-.2-.11-.39-.08-.44.07-.27.91-.52,1.86-.74,2.82a.28.28,0,0,0,0,.13A.58.58,0,0,0,192.62,60.83Zm1.61-5.54c.2.13.4.11.45,0,.33-.89.69-1.76,1.07-2.59a.46.46,0,0,0-.23-.49c-.2-.13-.4-.12-.47,0-.38.84-.74,1.72-1.07,2.62a.25.25,0,0,0,0,.15A.59.59,0,0,0,194.23,55.29Zm2.28-5.11c.19.14.41.14.48,0,.44-.81.92-1.6,1.42-2.34.09-.13,0-.35-.18-.49s-.4-.16-.48,0c-.51.75-1,1.55-1.44,2.36a.28.28,0,0,0,0,.18A.6.6,0,0,0,196.51,50.18Zm3-4.59c.18.15.4.18.5.06.54-.67,1.11-1.32,1.71-1.94l.08-.09c.11-.11.05-.32-.12-.48s-.4-.2-.5-.09l-.09.09c-.6.62-1.18,1.29-1.73,2a.23.23,0,0,0,0,.2A.49.49,0,0,0,199.53,45.59Zm3.78-3.94a.43.43,0,0,0,.51.12c.69-.58,1.42-1.14,2.18-1.66.13-.09.11-.3-.05-.47s-.39-.24-.52-.15c-.77.53-1.51,1.09-2.21,1.68a.24.24,0,0,0-.06.23A.56.56,0,0,0,203.31,41.65Zm4.55-3.19a.47.47,0,0,0,.51.18c.82-.46,1.67-.89,2.54-1.28.14-.06.15-.26,0-.44a.51.51,0,0,0-.52-.21c-.88.4-1.74.83-2.57,1.29a.21.21,0,0,0-.08.25A.43.43,0,0,0,207.86,38.46Zm5.22-2.4a.54.54,0,0,0,.52.23c.92-.32,1.88-.62,2.84-.87.16,0,.19-.22.07-.41a.53.53,0,0,0-.51-.26c-1,.25-1.94.55-2.88.88a.2.2,0,0,0-.11.26A.47.47,0,0,0,213.08,36.06Zm5.83-1.58a.56.56,0,0,0,.51.29c1-.18,2.06-.33,3.1-.43.18,0,.24-.19.14-.38a.56.56,0,0,0-.5-.31c-1.06.11-2.12.25-3.14.44-.14,0-.19.13-.16.27A.61.61,0,0,0,218.91,34.48Zm6.35-.68a.61.61,0,0,0,.49.34c1.09,0,2.22,0,3.33,0,.19,0,.28-.14.21-.33a.58.58,0,0,0-.47-.36c-1.14-.06-2.28-.07-3.39,0-.15,0-.23.12-.2.28Zm6.79.28a.59.59,0,0,0,.46.38c1.11.13,2.23.3,3.35.51l.16,0c.2,0,.32-.08.27-.27h0a.59.59,0,0,0-.43-.41l-.17,0c-1.13-.21-2.27-.38-3.4-.51a.2.2,0,0,0-.24.27Zm3.6-.71c.2.05.33-.07.29-.25-.22-1.12-.4-2.23-.52-3.3a.59.59,0,0,0-.4-.44c-.2-.06-.34,0-.32.22a32,32,0,0,0,.53,3.36h0A.59.59,0,0,0,235.65,33.37Zm.42,3c.34,1.18.73,2.34,1.16,3.47a.6.6,0,0,0,.47.36c.19,0,.29-.13.22-.32-.43-1.11-.81-2.26-1.14-3.41a.61.61,0,0,0-.45-.39.21.21,0,0,0-.26.28Zm-1.19-9.57c.2.07.36,0,.36-.18a22.72,22.72,0,0,1,.2-3,.54.54,0,0,0-.32-.47c-.21-.1-.39,0-.41.12a23.79,23.79,0,0,0-.2,3.11.25.25,0,0,0,0,.08A.61.61,0,0,0,234.88,26.81Zm3.88,16.54c.25.5.5,1,.74,1.36a18.84,18.84,0,0,0,1.48,2.1.49.49,0,0,0,.52.2c.14-.07.14-.27,0-.45a16.6,16.6,0,0,1-1.39-2c-.23-.38-.47-.81-.71-1.29a.58.58,0,0,0-.49-.32.21.21,0,0,0-.19.28A.36.36,0,0,0,238.76,43.35Zm-3.14-22.52c.19.11.39.08.44-.07a12.94,12.94,0,0,1,1.08-2.55c.07-.13,0-.35-.21-.49s-.4-.13-.48,0a14,14,0,0,0-1.1,2.62.26.26,0,0,0,0,.15A.64.64,0,0,0,235.62,20.83Zm4,15c1.23.32,2.44.7,3.6,1.11.2.07.36,0,.35-.19a.55.55,0,0,0-.37-.45c-1.19-.42-2.43-.8-3.69-1.13-.2,0-.34,0-.31.24v0A.59.59,0,0,0,239.59,35.8ZM244,49.9a22.29,22.29,0,0,0,3.52,2.5c.2.11.39.07.43-.08s-.08-.37-.28-.48a20.37,20.37,0,0,1-3.31-2.36c-.18-.15-.4-.18-.5-.06a.22.22,0,0,0,0,.21A.64.64,0,0,0,244,49.9Zm-5.79-34c.17.15.4.19.5.08a11.17,11.17,0,0,1,2-1.78c.12-.09.1-.3-.06-.47a.45.45,0,0,0-.51-.15,12,12,0,0,0-2.1,1.84.22.22,0,0,0,0,.21A.64.64,0,0,0,238.2,15.94Zm8.6,22.45a30,30,0,0,1,3.51,2c.19.13.4.11.46,0s-.05-.36-.24-.49a32.56,32.56,0,0,0-3.66-2c-.2-.09-.38,0-.4.13a.45.45,0,0,0,0,.11A.56.56,0,0,0,246.8,38.39ZM251.28,54l.55.12a7.86,7.86,0,0,0,2.59.07l.37-.07c.17,0,.21-.22.09-.41a.54.54,0,0,0-.51-.27,3.43,3.43,0,0,1-.34.06,7.06,7.06,0,0,1-2.37-.06l-.5-.11c-.2-.05-.33.06-.3.25v0A.62.62,0,0,0,251.28,54Zm-8.54-41.16a.53.53,0,0,0,.51.25,14.46,14.46,0,0,1,3-.53c.18,0,.25-.18.15-.37a.58.58,0,0,0-.49-.32,14.75,14.75,0,0,0-3.12.55c-.12,0-.16.14-.13.27A.34.34,0,0,0,242.74,12.79Zm10.78,30.09.57.57A11.94,11.94,0,0,1,256,46a.56.56,0,0,0,.5.3c.18,0,.23-.2.13-.39a13.27,13.27,0,0,0-2-2.74c-.2-.21-.4-.41-.61-.61s-.4-.21-.51-.11a.23.23,0,0,0,0,.23A.56.56,0,0,0,253.52,42.88Zm3.2,9.55c.18.14.4.15.48,0a4.76,4.76,0,0,0,.57-3,.59.59,0,0,0-.4-.44c-.2-.06-.35,0-.33.21a4.31,4.31,0,0,1-.51,2.74.24.24,0,0,0,0,.19A.57.57,0,0,0,256.72,52.43Zm-7.64-40.3a.59.59,0,0,0,.47.37c1.07.06,2.23.18,3.45.36a.21.21,0,0,0,.25-.29.58.58,0,0,0-.45-.39c-1.23-.19-2.42-.31-3.51-.37a.2.2,0,0,0-.22.27A.07.07,0,0,0,249.08,12.13Zm7.46,1.38c1.14.24,2.35.53,3.59.86.2.06.34,0,.31-.23a.58.58,0,0,0-.41-.43c-1.26-.33-2.48-.63-3.64-.88-.19,0-.32.08-.28.26h0A.58.58,0,0,0,256.54,13.51Zm7.21,1.91c1.17.35,2.39.75,3.64,1.18.2.07.35,0,.34-.2a.57.57,0,0,0-.38-.45c-1.25-.43-2.49-.83-3.67-1.19-.2-.06-.35,0-.33.22a.06.06,0,0,0,0,0A.6.6,0,0,0,263.75,15.42ZM271,17.9c1.19.44,2.42.91,3.65,1.4.21.08.37,0,.37-.17a.54.54,0,0,0-.36-.46c-1.24-.49-2.47-1-3.67-1.41-.2-.07-.36,0-.36.18s0,0,0,.07A.63.63,0,0,0,271,17.9Zm7.3,2.9c1.21.5,2.43,1,3.65,1.57.2.09.38,0,.39-.14a.54.54,0,0,0-.34-.47c-1.22-.54-2.46-1.07-3.67-1.58-.2-.09-.37,0-.38.15s0,.06,0,.09A.66.66,0,0,0,278.33,20.8ZM285.62,24c1.23.56,2.45,1.15,3.64,1.73.2.09.38,0,.4-.12a.52.52,0,0,0-.32-.48c-1.19-.58-2.42-1.17-3.65-1.74-.2-.09-.38,0-.4.13a.41.41,0,0,0,0,.11A.64.64,0,0,0,285.62,24Zm7.26,3.54c1.33.68,2.54,1.33,3.59,1.91.2.11.39.07.43-.08a.5.5,0,0,0-.28-.48c-1.07-.59-2.29-1.24-3.63-1.94-.2-.1-.39-.05-.42.11a.25.25,0,0,0,0,.12A.61.61,0,0,0,292.88,27.57Z"/><polygon class="cls-6" points="330.46 32.42 308.28 37.74 304.55 31.14 300.98 24.84 330.46 32.42"/><polygon class="cls-7" points="330.46 32.42 297.77 19.87 289.89 12.41 330.46 32.42"/><polygon class="cls-8" points="304.55 31.14 293.55 30.82 300.98 24.84 304.55 31.14"/><polygon class="cls-9" points="330.46 32.42 300.98 24.84 293.55 30.82 297.77 19.87 330.46 32.42"/><path class="cls-10" d="M109,0c10.12,0,11.63,14.93,23.48,10.27s18.3,4.66,18.3,4.66H81.39s1.51-5.6,12.49-7.46S98.84,0,109,0Z"/><path class="cls-11" d="M324.83,65.1c-7.07.82-6.16-3.84-17.27-7.13s-12.93,8-20.41,4.66-11.71,6.3-11.71,6.3h61.2A15.4,15.4,0,0,0,324.83,65.1Z"/><rect class="cls-12" x="78.33" y="103.21" width="270.85" height="192.76"/><rect class="cls-11" x="97.9" y="139.49" width="231.71" height="139.59"/><rect class="cls-13" x="110.51" y="156.39" width="24.72" height="30.33" rx="0.78" transform="translate(294.43 48.69) rotate(90)"/><rect class="cls-13" x="154.8" y="156.39" width="24.72" height="30.33" rx="0.78" transform="translate(338.71 4.4) rotate(90)"/><rect class="cls-13" x="199.08" y="156.39" width="24.72" height="30.33" rx="0.78" transform="translate(382.99 -39.88) rotate(90)"/><rect class="cls-13" x="243.36" y="156.39" width="24.72" height="30.33" rx="0.78" transform="translate(427.28 -84.16) rotate(90)"/><rect class="cls-13" x="287.65" y="156.39" width="24.72" height="30.33" rx="0.78" transform="translate(471.56 -128.45) rotate(90)"/><rect class="cls-13" x="110.51" y="194.12" width="24.72" height="30.33" rx="0.78" transform="translate(332.16 86.41) rotate(90)"/><rect class="cls-13" x="154.8" y="194.12" width="24.72" height="30.33" rx="0.78" transform="translate(376.44 42.13) rotate(90)"/><rect class="cls-13" x="199.08" y="194.12" width="24.72" height="30.33" rx="0.78" transform="translate(420.72 -2.15) rotate(90)"/><rect class="cls-13" x="243.36" y="194.12" width="24.72" height="30.33" rx="0.78" transform="translate(465 -46.44) rotate(90)"/><rect class="cls-13" x="287.65" y="194.12" width="24.72" height="30.33" rx="0.78" transform="translate(509.29 -90.72) rotate(90)"/><rect class="cls-13" x="110.51" y="231.5" width="24.72" height="30.33" rx="0.78" transform="translate(369.54 123.8) rotate(90)"/><rect class="cls-13" x="154.8" y="231.5" width="24.72" height="30.33" rx="0.78" transform="translate(413.82 79.52) rotate(90)"/><rect class="cls-13" x="199.08" y="231.5" width="24.72" height="30.33" rx="0.78" transform="translate(458.11 35.23) rotate(90)"/><rect class="cls-13" x="243.36" y="231.5" width="24.72" height="30.33" rx="0.78" transform="translate(502.39 -9.05) rotate(90)"/><rect class="cls-13" x="287.65" y="231.5" width="24.72" height="30.33" rx="0.78" transform="translate(546.67 -53.33) rotate(90)"/><rect class="cls-13" x="96.87" y="89.82" width="11.33" height="28.84" rx="3.01"/><rect class="cls-13" x="141.15" y="89.82" width="11.33" height="28.84" rx="3.01"/><rect class="cls-13" x="185.43" y="89.82" width="11.33" height="28.84" rx="3.01"/><rect class="cls-13" x="229.72" y="89.82" width="11.33" height="28.84" rx="3.01"/><rect class="cls-13" x="274" y="89.82" width="11.33" height="28.84" rx="3.01"/><rect class="cls-13" x="318.28" y="89.82" width="11.33" height="28.84" rx="3.01"/><path class="cls-14" d="M347.61,208.72l-.08,0a.18.18,0,0,1-.08-.23c2.4-5.07,2.7-9.27.88-12.16a7.83,7.83,0,0,0-6-3.5.18.18,0,0,1-.18-.17.17.17,0,0,1,.18-.17,8.19,8.19,0,0,1,6.31,3.66c1.32,2.08,2.24,5.94-.86,12.49A.18.18,0,0,1,347.61,208.72Z"/><path class="cls-15" d="M322.88,301.13s-1.21.13-1.7.13-.54,1.5.67,2.22,6.17.61,8.35-.24l.13.49,3-.14a9.72,9.72,0,0,0-.05-3.55C332.89,299.09,326,302.58,322.88,301.13Z"/><path class="cls-16" d="M348.81,300.53a15.75,15.75,0,0,0-.28,4.1c.1,2.54.33,3,2,3.17s3.78-.14,3.73-1.35a23.76,23.76,0,0,0-1.8-6.07A3.78,3.78,0,0,0,348.81,300.53Z"/><path class="cls-17" d="M334.39,293.46s-1.29,5.06-1.29,5.67a1.94,1.94,0,0,0,.18.91,14.89,14.89,0,0,1-7.38,2.17c-3.65,0-3-1.08-3-1.08a28,28,0,0,0,3.33-.43,10.15,10.15,0,0,0,3.63-2.66c.36-.73.56-5.39.56-5.39A5.29,5.29,0,0,1,334.39,293.46Z"/><path class="cls-18" d="M348.76,295.19s.15,4,.07,5.06.07,4.6,1.29,4.8,3.27.1,3.23-.86-.86-3.24-.9-4.21.15-5.22.15-5.22A5.56,5.56,0,0,0,348.76,295.19Z"/><path class="cls-19" d="M339.7,242.56s-5.27,15.91-7.44,22.68-1.88,21-2.67,27.47a38,38,0,0,0,5.57,1s2.66-12.46,3.75-18,1.57-7,4.36-11.25a83.46,83.46,0,0,0,5.08-9.2l-.83-11.37S345,241.16,339.7,242.56Z"/><path class="cls-20" d="M354.52,239.65s3.21,5.86,3.28,10.7-3.23,15.76-3.55,22.67-.36,17.7-.93,21.6a16.83,16.83,0,0,1-5.3.58s-.82-14-1.21-17.51-.49-12-.63-15.48-.91-17.73-1.93-19C344.25,243.22,348.62,239,354.52,239.65Z"/><path class="cls-21" d="M332.86,226.64a45.36,45.36,0,0,1-.85,5s-3.08-.78-4.41-1L326.27,232s3.32,3.57,6.11,4.29,2.9-.24,3.87-2.54,1.69-4.72,1.69-4.72S335.64,226.4,332.86,226.64Z"/><path class="cls-22" d="M336.07,212.67a7,7,0,0,0-2.3,4.35c-.44,2.26-.91,9.62-.91,9.62a12.92,12.92,0,0,0,5.08,1.21S339,214.36,336.07,212.67Z"/><path class="cls-23" d="M348.53,209.16a28.85,28.85,0,0,1,4.66,1.15s-1.21,15-.12,19.84,2.9,5.81,4.24,9.32c0,0-11.08,6.72-19.85,2.9,1.15-10.83-2.24-13.13-2.24-18.93,0-4.16,2.78-6.78.85-10.77C336.07,212.67,338.73,209.88,348.53,209.16Z"/><path class="cls-14" d="M349.1,203.92c.86-5.88-1.1-7.8-2.43-9.14s-5.94-4.56-11.39-.21-.22,11.19.23,16.42c.31,3.73.62,10.81,2.43,10.93s4.66-6.59,4.66-8.77S347.88,212.35,349.1,203.92Z"/><path class="cls-24" d="M345.77,202.76s1,6.27,2.76,6.4c0,0-1.21,6.65-6.14,6.32,0,0,.87-3.94-.88-7C341.51,208.5,343.06,202,345.77,202.76Z"/><path class="cls-25" d="M345.08,204s-1.51,5.63-4.47,5.81c-2.06.13-4.36-3.39-5.45-6.53s.12-4.12.85-4.12,2.42.73,4.35-1.21c0,0,1.47,3.89,3.15,4.24,1.11.23.49-2.34,1.71-2.35C346.79,199.84,346.66,203.38,345.08,204Z"/><path class="cls-26" d="M336.85,228.7s5.45,4,8.35,5.2a24.06,24.06,0,0,0,8.41,1.39c1.09-.72,2.06-4.72,2.61-8.65,0,0-4.54-1.78-5.93-.48,0,0-.12,3.51-.25,3.87,0,0-8.41-1.4-12.61-3.42A3.22,3.22,0,0,0,336.85,228.7Z"/><path class="cls-27" d="M328.45,225.1a2.27,2.27,0,0,1,.83-.94c.34-.2.69-.37,1-.56.68-.36,1.37-.72,2.07-1.07s1.39-.68,2.1-1,1.42-.63,2.15-.9a.51.51,0,0,1,.66.3.5.5,0,0,1-.21.62c-.66.41-1.34.79-2,1.15s-1.37.72-2.07,1.05-1.4.67-2.11,1a3.62,3.62,0,0,1-2.31.57.16.16,0,0,1-.12-.18S328.45,225.11,328.45,225.1Z"/><path class="cls-28" d="M351.5,231a.14.14,0,0,1-.11-.06,2,2,0,0,0-1.36-.79.13.13,0,0,1-.11-.15.13.13,0,0,1,.14-.11,2.22,2.22,0,0,1,1.54.91.12.12,0,0,1,0,.17A.11.11,0,0,1,351.5,231Z"/><path class="cls-29" d="M336.85,228.7a1.78,1.78,0,0,1-1.45-.24c-.6-.49-.48-1.7-.84-1.82s-.37.49-.13.49.37.24.13.36-.9-.18-1.24-.64a1,1,0,0,1-.82-.33,2.09,2.09,0,0,1,.72-2.18,2.94,2.94,0,0,0-1.69.49c-.48.48-1,.84-1.21.48s.6-1.33.6-1.33-.72,0-.48-.48a7.21,7.21,0,0,1,2.68-1.71,13.15,13.15,0,0,1,2.77.86,10.15,10.15,0,0,1,1.57,4S337.58,228.34,336.85,228.7Z"/><path class="cls-30" d="M334.35,226.67a.12.12,0,0,1-.1-.07.1.1,0,0,1,.06-.14,2.42,2.42,0,0,1,1.49-.05.11.11,0,0,1,.07.14.11.11,0,0,1-.14.08,2.27,2.27,0,0,0-1.34,0Z"/><path class="cls-30" d="M333.35,226.86a.12.12,0,0,1-.11-.07,1,1,0,0,1,0-1c.49-.64,2-.44,2-.43a.11.11,0,0,1,.09.13.1.1,0,0,1-.12.09s-1.42-.19-1.83.34a.79.79,0,0,0,0,.82.11.11,0,0,1-.06.15Z"/><path class="cls-30" d="M333.22,224.45a.11.11,0,0,1,0-.21,5.61,5.61,0,0,1,1.61-.25.11.11,0,1,1,0,.22,5.92,5.92,0,0,0-1.54.24Z"/><path class="cls-30" d="M330.92,224.09a.12.12,0,0,1-.09-.05.1.1,0,0,1,0-.15,14.46,14.46,0,0,1,2.09-1.11,5.88,5.88,0,0,1,1.49,0,.1.1,0,0,1,.09.12.1.1,0,0,1-.12.1,5.23,5.23,0,0,0-1.41,0,14.76,14.76,0,0,0-2,1.07A.07.07,0,0,1,330.92,224.09Z"/><polygon class="cls-4" points="317.49 222.53 322.82 219.99 330.08 229.91 325.12 232.57 317.49 222.53"/><path class="cls-31" d="M326.81,232.33a1.62,1.62,0,0,1-1.57,1c-.85-.12-1.58-1.09-2.06-1.33s-1.45-1.7-1.33-2.06,1.21-2.3,2.06-2.66.72.36.36.6a5.12,5.12,0,0,0-1.27,1.88s2.12-1.79,2.72-1.64.12.61.12.61.85-.36.73.36-1.7,2.06-1.7,2.91c0,.38,1.79-2.42,2.06-2.42s.36.6-.48,2.3C326.45,231.85,327.3,231.46,326.81,232.33Z"/><path class="cls-30" d="M323.42,231.71h0a.12.12,0,0,1-.06-.15,6.29,6.29,0,0,1,2.47-3,.11.11,0,0,1,.15,0,.12.12,0,0,1,0,.16,6.06,6.06,0,0,0-2.37,2.84A.11.11,0,0,1,323.42,231.71Z"/><path class="cls-32" d="M350.29,226.16l5.93.48s2.63-14.84-3-16.33c-2.62-.69-2.83,4-2.84,8.41C350.34,222,350.29,225.07,350.29,226.16Z"/><path class="cls-14" d="M334.83,202.87a.16.16,0,0,1-.17-.15c-.23-1.54-.11-2.41.41-2.9s1.36-.56,2.78-.28c1.63.32,2.38-1.9,2.39-1.93l.18-.56.15.58c.28,1.12,1.25,4.11,2.36,4.47a.77.77,0,0,0,.76-.21.17.17,0,0,1,.22.26,1.09,1.09,0,0,1-1.09.27c-1.22-.39-2.13-3.11-2.45-4.23-.36.71-1.19,2-2.58,1.69s-2.08-.2-2.49.19-.51,1.2-.3,2.6a.18.18,0,0,1-.15.2Z"/><path class="cls-33" d="M343.72,241.71a19,19,0,0,1-6.05-.89.18.18,0,0,1-.1-.22.16.16,0,0,1,.22-.1c.09,0,8.79,3.24,18.46-2.86a.16.16,0,0,1,.23.05.18.18,0,0,1-.05.24A23.66,23.66,0,0,1,343.72,241.71Z"/><path class="cls-33" d="M356.24,225.86h0c-1-.16-5.76-.5-5.81-.51a.17.17,0,0,1-.16-.18.19.19,0,0,1,.19-.16c.19,0,4.84.35,5.84.52a.16.16,0,0,1,.14.19A.16.16,0,0,1,356.24,225.86Z"/><path class="cls-34" d="M348.61,294.05h-.7a.16.16,0,0,1-.16-.17.17.17,0,0,1,.17-.17,20.24,20.24,0,0,0,5.5-.54.16.16,0,0,1,.21.11.17.17,0,0,1-.1.22A17.94,17.94,0,0,1,348.61,294.05Z"/><path class="cls-34" d="M335.4,292.72h0a36.57,36.57,0,0,1-5.7-1.14.16.16,0,0,1-.11-.21.17.17,0,0,1,.21-.12,35.12,35.12,0,0,0,5.64,1.13.17.17,0,0,1,.15.19A.16.16,0,0,1,335.4,292.72Z"/><path class="cls-14" d="M336.87,220.54a.18.18,0,0,1-.16-.1,26.86,26.86,0,0,1-1.72-7.6,20.1,20.1,0,0,0-1.26-5.79c-2.17-5.05-2.21-9-.13-11.69,2.28-3,6.46-3.43,8-3.19.49.07.77.2.85.41a.18.18,0,0,1-.1.22.17.17,0,0,1-.22-.1c-.18-.32-2.93-.55-5.59.74s-6.31,4.66-2.51,13.47a20.68,20.68,0,0,1,1.28,5.89,26.5,26.5,0,0,0,1.7,7.51.17.17,0,0,1-.1.22Z"/></g></g></g></svg>